# xmcd CD database file
#
# Track frame offsets:
#	150
#	18819
#	35844
#	53213
#	72090
#	90325
#	108933
#	124027
#	141465
#	159468
#	174744
#	191607
#	209723
#	225740
#	243608
#	258215
#	274824
#	293361
#	308518
#	322019
#
# Disc length: 4556 seconds
#
# Revision: 0
# Processed by: cddbd v1.5.2PL0 Copyright (c) Steve Scherf et al.
# Submitted via: CDex 1.50
#
DISCID=1e11ca14
DTITLE=Compilation - Las Grandes Sesiones De La Salsa 5 [CD3)
DYEAR=2006
DGENRE=Salsa
TTITLE0=Orquesta Antifaz/Todo Por Nada
TTITLE1=Don Perignon and La Puertorriquena/Distinto Y Diferente
TTITLE2=Jose Alberto El Canario/Canta Canario
TTITLE3=Willie Sotelo Y La Mundial de la Salsa/Una Salsita
TTITLE4=La Cosmopolita/Lloraràs
TTITLE5=Michel Maza/La Madrugada
TTITLE6=Hermanos Moreno/Como Se Menea
TTITLE7=Lokkera/Ser Amante
TTITLE8=Joseph Fonseca and Merenkan/Dèjenme
TTITLE9=Patrulla 15/Un Hombre Busca Una Mujer
TTITLE10=Eko/Pa'To'La Vida
TTITLE11=Los Sabrosos/Devuèlveme Todo
TTITLE12=Amarfis Y La Banda De Atakke/Gotitas De Escarcha
TTITLE13=Rubby Pèrez/El Perro Ajeno
TTITLE14=Merenkan/Va'Palante
TTITLE15=mambo and Mayombè/Mambo A Fuego
TTITLE16=Oro Solido/Los Santos
TTITLE17=Kiko Rodiguez/Bandida
TTITLE18=Klaudio/Quien Sera Ella
TTITLE19=Obsesiòn Perdida/Perdidos
EXTD=YEAR: 2006
EXTT0=
EXTT1=
EXTT2=
EXTT3=
EXTT4=
EXTT5=
EXTT6=
EXTT7=
EXTT8=
EXTT9=
EXTT10=
EXTT11=
EXTT12=
EXTT13=
EXTT14=
EXTT15=
EXTT16=
EXTT17=
EXTT18=
EXTT19=
PLAYORDER=
